<?xml version="1.0" encoding="utf-8"?>
<!-- Generator: Adobe Illustrator 22.0.1, SVG Export Plug-In . SVG Version: 6.00 Build 0)  -->
<svg version="1.1" id="Layer_3" xmlns="http://www.w3.org/2000/svg" xmlns:xlink="http://www.w3.org/1999/xlink" x="0px" y="0px"
	 viewBox="0 0 64 64" style="enable-background:new 0 0 64 64;" xml:space="preserve">
<style type="text/css">
	.st0{fill:#FAF5F5;}
	.st1{fill:#63312D;}
	.st2{fill:#F9A287;}
	.st3{fill:#FCB7A4;}
	.st4{fill:#DB785A;}
	.st5{fill:#E0E0E0;}
	.st6{fill:#84DBFF;}
	.st7{fill:#EFC36A;}
	.st8{fill:#F9DD9D;}
	.st9{fill:#EEC26A;}
	.st10{fill:#A9EBFF;}
	.st11{fill:#52BADB;}
	.st12{fill:#FFFFFF;}
	.st13{fill:#F0EEEE;}
	.st14{fill:#BDBDBD;}
	.st15{fill:#E3DFDF;}
	.st16{fill:#FFE8BB;}
	.st17{fill:#FFF2D2;}
	.st18{fill:#D8C18F;}
	.st19{fill:#EAD194;}
	.st20{fill:#BFA064;}
	.st21{fill:#CCCCCC;}
	.st22{fill:#C5F1FF;}
	.st23{fill:#D3A553;}
	.st24{fill:#67C7E5;}
</style>
<g>
	<circle class="st2" cx="9.531" cy="20.508" r="6.333"/>
	<path class="st3" d="M4.417,21.758c0-3.498,2.836-6.333,6.333-6.333c1.462,0,2.804,0.5,3.875,1.332
		c-1.153-1.563-3.003-2.582-5.094-2.582c-3.498,0-6.333,2.836-6.333,6.333c0,2.036,0.965,3.843,2.458,5.002
		C4.881,24.459,4.417,23.164,4.417,21.758z"/>
	<path class="st1" d="M9.532,27.342c-3.768,0-6.833-3.065-6.833-6.834c0-3.768,3.065-6.833,6.833-6.833
		c3.768,0,6.833,3.065,6.833,6.833C16.365,24.276,13.299,27.342,9.532,27.342z M9.532,14.675c-3.217,0-5.833,2.616-5.833,5.833
		s2.617,5.834,5.833,5.834c3.216,0,5.833-2.617,5.833-5.834S12.748,14.675,9.532,14.675z"/>
	<path class="st4" d="M12.484,14.175H9.532c3.498,0,6.333,2.836,6.333,6.333s-2.836,6.333-6.333,6.333h2.952
		c3.498,0,6.333-2.836,6.333-6.333S15.981,14.175,12.484,14.175z"/>
	<path class="st1" d="M12.483,27.342H9.532c-0.276,0-0.5-0.224-0.5-0.5s0.224-0.5,0.5-0.5c3.216,0,5.833-2.617,5.833-5.834
		s-2.617-5.833-5.833-5.833c-0.276,0-0.5-0.224-0.5-0.5s0.224-0.5,0.5-0.5h2.952c3.768,0,6.833,3.065,6.833,6.833
		C19.317,24.276,16.251,27.342,12.483,27.342z M13.148,14.713c1.93,1.208,3.216,3.354,3.216,5.795c0,2.441-1.287,4.587-3.217,5.796
		c2.905-0.331,5.169-2.804,5.169-5.796C18.317,17.517,16.053,15.044,13.148,14.713z"/>
	<circle class="st2" cx="9.531" cy="43.492" r="6.333"/>
	<path class="st3" d="M4.417,44.742c0-3.498,2.836-6.333,6.333-6.333c1.462,0,2.804,0.5,3.875,1.332
		c-1.153-1.563-3.003-2.582-5.094-2.582c-3.498,0-6.333,2.836-6.333,6.333c0,2.036,0.965,3.843,2.458,5.002
		C4.881,47.443,4.417,46.148,4.417,44.742z"/>
	<path class="st1" d="M9.532,50.325c-3.768,0-6.833-3.065-6.833-6.833c0-3.769,3.065-6.834,6.833-6.834
		c3.768,0,6.833,3.065,6.833,6.834C16.365,47.26,13.299,50.325,9.532,50.325z M9.532,37.658c-3.217,0-5.833,2.617-5.833,5.834
		s2.617,5.833,5.833,5.833c3.216,0,5.833-2.616,5.833-5.833S12.748,37.658,9.532,37.658z"/>
	<path class="st4" d="M12.484,37.159H9.532c3.498,0,6.333,2.836,6.333,6.333s-2.836,6.333-6.333,6.333h2.952
		c3.498,0,6.333-2.836,6.333-6.333S15.981,37.159,12.484,37.159z"/>
	<path class="st1" d="M12.483,50.325H9.532c-0.276,0-0.5-0.224-0.5-0.5s0.224-0.5,0.5-0.5c3.216,0,5.833-2.616,5.833-5.833
		s-2.617-5.834-5.833-5.834c-0.276,0-0.5-0.224-0.5-0.5s0.224-0.5,0.5-0.5h2.952c3.768,0,6.833,3.065,6.833,6.834
		C19.317,47.26,16.251,50.325,12.483,50.325z M13.148,37.696c1.93,1.209,3.217,3.354,3.217,5.796c0,2.44-1.286,4.587-3.216,5.795
		c2.905-0.331,5.168-2.804,5.168-5.795C18.317,40.5,16.053,38.027,13.148,37.696z"/>
	<circle class="st6" cx="51.516" cy="32" r="6.333"/>
	<path class="st10" d="M46.402,33.25c0-3.498,2.836-6.333,6.333-6.333c1.462,0,2.804,0.5,3.875,1.332
		c-1.153-1.563-3.003-2.582-5.094-2.582c-3.498,0-6.333,2.836-6.333,6.333c0,2.036,0.965,3.843,2.458,5.002
		C46.866,35.951,46.402,34.656,46.402,33.25z"/>
	<path class="st1" d="M51.516,38.833c-3.768,0-6.833-3.065-6.833-6.833s3.065-6.833,6.833-6.833c3.768,0,6.833,3.065,6.833,6.833
		S55.284,38.833,51.516,38.833z M51.516,26.167c-3.216,0-5.833,2.616-5.833,5.833s2.617,5.833,5.833,5.833
		c3.217,0,5.833-2.616,5.833-5.833S54.733,26.167,51.516,26.167z"/>
	<path class="st11" d="M54.468,25.667h-2.952c3.498,0,6.333,2.836,6.333,6.333s-2.836,6.333-6.333,6.333h2.952
		c3.498,0,6.333-2.836,6.333-6.333S57.966,25.667,54.468,25.667z"/>
	<path class="st1" d="M54.468,38.833h-2.952c-0.276,0-0.5-0.224-0.5-0.5s0.224-0.5,0.5-0.5c3.217,0,5.833-2.616,5.833-5.833
		s-2.617-5.833-5.833-5.833c-0.276,0-0.5-0.224-0.5-0.5s0.224-0.5,0.5-0.5h2.952c3.768,0,6.833,3.065,6.833,6.833
		S58.236,38.833,54.468,38.833z M55.133,26.205C57.063,27.413,58.35,29.56,58.35,32s-1.286,4.587-3.217,5.795
		c2.905-0.33,5.169-2.804,5.169-5.795S58.038,26.535,55.133,26.205z"/>
	<circle class="st8" cx="29.954" cy="32" r="6.333"/>
	<path class="st16" d="M24.84,33.25c0-3.498,2.836-6.333,6.333-6.333c1.462,0,2.804,0.5,3.875,1.332
		c-1.153-1.563-3.003-2.582-5.094-2.582c-3.498,0-6.333,2.836-6.333,6.333c0,2.036,0.965,3.843,2.458,5.002
		C25.304,35.951,24.84,34.656,24.84,33.25z"/>
	<path class="st1" d="M29.954,38.833c-3.768,0-6.833-3.065-6.833-6.833s3.065-6.833,6.833-6.833c3.768,0,6.833,3.065,6.833,6.833
		S33.722,38.833,29.954,38.833z M29.954,26.167c-3.216,0-5.833,2.616-5.833,5.833s2.617,5.833,5.833,5.833
		c3.217,0,5.833-2.616,5.833-5.833S33.171,26.167,29.954,26.167z"/>
	<path class="st7" d="M32.906,25.667h-2.952c3.498,0,6.333,2.836,6.333,6.333s-2.836,6.333-6.333,6.333h2.952
		c3.498,0,6.333-2.836,6.333-6.333S36.404,25.667,32.906,25.667z"/>
	<path class="st1" d="M32.906,38.833h-2.952c-0.276,0-0.5-0.224-0.5-0.5s0.224-0.5,0.5-0.5c3.217,0,5.833-2.616,5.833-5.833
		s-2.617-5.833-5.833-5.833c-0.276,0-0.5-0.224-0.5-0.5s0.224-0.5,0.5-0.5h2.952c3.768,0,6.833,3.065,6.833,6.833
		S36.674,38.833,32.906,38.833z M33.571,26.205c1.931,1.208,3.217,3.354,3.217,5.795s-1.286,4.587-3.217,5.795
		c2.905-0.33,5.169-2.804,5.169-5.795S36.476,26.535,33.571,26.205z"/>
	<circle class="st8" cx="29.954" cy="9.417" r="6.333"/>
	<path class="st16" d="M24.84,10.667c0-3.498,2.836-6.333,6.333-6.333c1.462,0,2.804,0.5,3.875,1.332
		c-1.153-1.563-3.003-2.582-5.094-2.582c-3.498,0-6.333,2.836-6.333,6.333c0,2.036,0.965,3.843,2.458,5.002
		C25.304,13.367,24.84,12.073,24.84,10.667z"/>
	<path class="st1" d="M29.954,16.25c-3.768,0-6.833-3.065-6.833-6.833c0-3.769,3.065-6.834,6.833-6.834
		c3.768,0,6.833,3.065,6.833,6.834C36.788,13.185,33.722,16.25,29.954,16.25z M29.954,3.583c-3.216,0-5.833,2.617-5.833,5.834
		s2.617,5.833,5.833,5.833c3.217,0,5.833-2.616,5.833-5.833S33.171,3.583,29.954,3.583z"/>
	<path class="st7" d="M32.906,3.083h-2.952c3.498,0,6.333,2.836,6.333,6.333s-2.836,6.333-6.333,6.333h2.952
		c3.498,0,6.333-2.836,6.333-6.333S36.404,3.083,32.906,3.083z"/>
	<path class="st1" d="M32.906,16.25h-2.952c-0.276,0-0.5-0.224-0.5-0.5s0.224-0.5,0.5-0.5c3.217,0,5.833-2.616,5.833-5.833
		s-2.617-5.834-5.833-5.834c-0.276,0-0.5-0.224-0.5-0.5s0.224-0.5,0.5-0.5h2.952c3.768,0,6.833,3.065,6.833,6.834
		C39.74,13.185,36.674,16.25,32.906,16.25z M33.571,3.621c1.931,1.209,3.217,3.354,3.217,5.796c0,2.44-1.286,4.587-3.217,5.795
		c2.905-0.33,5.169-2.804,5.169-5.795C38.74,6.425,36.476,3.951,33.571,3.621z"/>
	<circle class="st8" cx="29.954" cy="54.583" r="6.333"/>
	<path class="st16" d="M24.84,55.833c0-3.498,2.836-6.333,6.333-6.333c1.462,0,2.804,0.5,3.875,1.332
		c-1.153-1.563-3.003-2.582-5.094-2.582c-3.498,0-6.333,2.836-6.333,6.333c0,2.036,0.965,3.843,2.458,5.002
		C25.304,58.534,24.84,57.239,24.84,55.833z"/>
	<path class="st1" d="M29.954,61.417c-3.768,0-6.833-3.065-6.833-6.834c0-3.768,3.065-6.833,6.833-6.833
		c3.768,0,6.833,3.065,6.833,6.833C36.788,58.352,33.722,61.417,29.954,61.417z M29.954,48.75c-3.216,0-5.833,2.616-5.833,5.833
		s2.617,5.834,5.833,5.834c3.217,0,5.833-2.617,5.833-5.834S33.171,48.75,29.954,48.75z"/>
	<path class="st7" d="M32.906,48.25h-2.952c3.498,0,6.333,2.836,6.333,6.333s-2.836,6.333-6.333,6.333h2.952
		c3.498,0,6.333-2.836,6.333-6.333S36.404,48.25,32.906,48.25z"/>
	<path class="st1" d="M32.906,61.417h-2.952c-0.276,0-0.5-0.224-0.5-0.5s0.224-0.5,0.5-0.5c3.217,0,5.833-2.617,5.833-5.834
		s-2.617-5.833-5.833-5.833c-0.276,0-0.5-0.224-0.5-0.5s0.224-0.5,0.5-0.5h2.952c3.768,0,6.833,3.065,6.833,6.833
		C39.74,58.352,36.674,61.417,32.906,61.417z M33.571,48.788c1.931,1.208,3.217,3.354,3.217,5.795c0,2.441-1.286,4.587-3.217,5.796
		c2.905-0.33,5.169-2.804,5.169-5.796C38.74,51.592,36.476,49.118,33.571,48.788z"/>
	
		<rect x="19.692" y="19.732" transform="matrix(0.5436 -0.8393 0.8393 0.5436 -11.8639 28.4096)" class="st1" width="1.001" height="10.764"/>
	
		<rect x="14.81" y="38.385" transform="matrix(0.8393 -0.5436 0.5436 0.8393 -17.8947 17.2244)" class="st1" width="10.764" height="1.001"/>
	
		<rect x="20.231" y="22.662" transform="matrix(0.9059 -0.4235 0.4235 0.9059 -13.544 12.2234)" class="st1" width="1" height="27.848"/>
	
		<rect x="6.807" y="26.913" transform="matrix(0.4236 -0.9058 0.9058 0.4236 -12.8834 34.5793)" class="st1" width="27.848" height="1"/>
	
		<rect x="13.923" y="13.562" transform="matrix(0.8689 -0.495 0.495 0.8689 -4.4314 11.3926)" class="st1" width="10.738" height="1"/>
	
		<rect x="18.792" y="44.569" transform="matrix(0.4948 -0.869 0.869 0.4948 -33.6501 41.9923)" class="st1" width="1" height="10.738"/>
	<rect x="36.288" y="31.5" class="st1" width="8.932" height="1"/>
	<g>
		
			<rect x="41.861" y="8.099" transform="matrix(0.7906 -0.6123 0.6123 0.7906 -2.2276 29.7353)" class="st1" width="1.001" height="20.051"/>
		
			<rect x="32.336" y="45.375" transform="matrix(0.6127 -0.7903 0.7903 0.6127 -19.8495 51.2449)" class="st1" width="20.051" height="1.001"/>
	</g>
</g>
</svg>
